<?xml version="1.0" encoding="UTF-8" standalone="no"?><svg xmlns="http://www.w3.org/2000/svg" xmlns:xlink="http://www.w3.org/1999/xlink" contentScriptType="application/ecmascript" contentStyleType="text/css" height="607px" preserveAspectRatio="none" style="width:894px;height:607px;" version="1.1" viewBox="0 0 894 607" width="894px" zoomAndPan="magnify"><defs><filter height="300%" id="f1v75937xr2b2j" width="300%" x="-1" y="-1"><feGaussianBlur result="blurOut" stdDeviation="2.0"/><feColorMatrix in="blurOut" result="blurOut2" type="matrix" values="0 0 0 0 0 0 0 0 0 0 0 0 0 0 0 0 0 0 .4 0"/><feOffset dx="4.0" dy="4.0" in="blurOut2" result="blurOut3"/><feBlend in="SourceGraphic" in2="blurOut3" mode="normal"/></filter></defs><g><ellipse cx="623.5" cy="18" fill="#000000" filter="url(#f1v75937xr2b2j)" rx="10" ry="10" style="stroke: none; stroke-width: 1.0;"/><rect fill="#FEFECE" filter="url(#f1v75937xr2b2j)" height="50" rx="12.5" ry="12.5" style="stroke: #A80036; stroke-width: 1.5;" width="170" x="538.5" y="88"/><line style="stroke: #A80036; stroke-width: 1.5;" x1="538.5" x2="708.5" y1="114.2969" y2="114.2969"/><text fill="#000000" font-family="sans-serif" font-size="14" lengthAdjust="spacingAndGlyphs" textLength="150" x="548.5" y="105.9951">Sélection des joueurs</text><rect fill="#FEFECE" filter="url(#f1v75937xr2b2j)" height="288.2969" rx="12.5" ry="12.5" style="stroke: #A80036; stroke-width: 1.5;" width="789" x="6" y="198"/><rect fill="#FFFFFF" height="256" rx="12.5" ry="12.5" style="stroke: #FFFFFF; stroke-width: 1.0;" width="783" x="9" y="227.2969"/><line style="stroke: #A80036; stroke-width: 1.5;" x1="6" x2="795" y1="224.2969" y2="224.2969"/><text fill="#000000" font-family="sans-serif" font-size="14" lengthAdjust="spacingAndGlyphs" textLength="21" x="390" y="215.9951">Jeu</text><ellipse cx="127" cy="247.2969" fill="#000000" filter="url(#f1v75937xr2b2j)" rx="10" ry="10" style="stroke: none; stroke-width: 1.0;"/><ellipse cx="752" cy="382.7969" fill="none" filter="url(#f1v75937xr2b2j)" rx="10" ry="10" style="stroke: #000000; stroke-width: 1.0;"/><ellipse cx="752.5" cy="383.2969" fill="#000000" rx="6" ry="6" style="stroke: none; stroke-width: 1.0;"/><rect fill="#FEFECE" filter="url(#f1v75937xr2b2j)" height="161.2969" rx="12.5" ry="12.5" style="stroke: #A80036; stroke-width: 1.5;" width="220" x="17" y="302.2969"/><rect fill="#FFFFFF" height="129" rx="12.5" ry="12.5" style="stroke: #FFFFFF; stroke-width: 1.0;" width="214" x="20" y="331.5938"/><line style="stroke: #A80036; stroke-width: 1.5;" x1="17" x2="237" y1="328.5938" y2="328.5938"/><text fill="#000000" font-family="sans-serif" font-size="14" lengthAdjust="spacingAndGlyphs" textLength="93" x="80.5" y="320.292">Tour joueur X</text><ellipse cx="89" cy="351.5938" fill="#000000" filter="url(#f1v75937xr2b2j)" rx="10" ry="10" style="stroke: none; stroke-width: 1.0;"/><rect fill="#FEFECE" filter="url(#f1v75937xr2b2j)" height="50" rx="12.5" ry="12.5" style="stroke: #A80036; stroke-width: 1.5;" width="122" x="28" y="398.5938"/><line style="stroke: #A80036; stroke-width: 1.5;" x1="28" x2="150" y1="424.8906" y2="424.8906"/><text fill="#000000" font-family="sans-serif" font-size="14" lengthAdjust="spacingAndGlyphs" textLength="102" x="38" y="416.5889">tir d'une flèche</text><!--link *start*turn to shoot--><path d="M89,361.7451 C89,369.7794 89,381.9196 89,393.248 " fill="none" id="*start*turn-shoot" style="stroke: #A80036; stroke-width: 1.0;"/><polygon fill="#A80036" points="89,398.3782,93,389.3782,89,393.3782,85,389.3782,89,398.3782" style="stroke: #A80036; stroke-width: 1.0;"/><!--link shoot to shoot--><path d="M150.279,416.2422 C160.747,417.2468 168,419.6973 168,423.5938 C168,426.8206 163.026,429.0557 155.371,430.2992 " fill="none" id="shoot-shoot" style="stroke: #A80036; stroke-width: 1.0;"/><polygon fill="#A80036" points="150.279,430.9454,159.7105,433.7822,155.2393,430.3168,158.7047,425.8456,150.279,430.9454" style="stroke: #A80036; stroke-width: 1.0;"/><text fill="#000000" font-family="sans-serif" font-size="13" lengthAdjust="spacingAndGlyphs" textLength="24" x="174" y="428.1606">1..3</text><rect fill="#FEFECE" filter="url(#f1v75937xr2b2j)" height="177.2969" rx="12.5" ry="12.5" style="stroke: #A80036; stroke-width: 1.5;" width="378" x="255" y="294.2969"/><rect fill="#FFFFFF" height="145" rx="12.5" ry="12.5" style="stroke: #FFFFFF; stroke-width: 1.0;" width="372" x="258" y="323.5938"/><line style="stroke: #A80036; stroke-width: 1.5;" x1="255" x2="633" y1="320.5938" y2="320.5938"/><text fill="#000000" font-family="sans-serif" font-size="14" lengthAdjust="spacingAndGlyphs" textLength="85" x="401.5" y="312.292">Score tour X</text><ellipse cx="435" cy="343.5938" fill="#000000" filter="url(#f1v75937xr2b2j)" rx="10" ry="10" style="stroke: none; stroke-width: 1.0;"/><rect fill="#FEFECE" filter="url(#f1v75937xr2b2j)" height="50" rx="12.5" ry="12.5" style="stroke: #A80036; stroke-width: 1.5;" width="162" x="266" y="406.5938"/><line style="stroke: #A80036; stroke-width: 1.5;" x1="266" x2="428" y1="432.8906" y2="432.8906"/><text fill="#000000" font-family="sans-serif" font-size="14" lengthAdjust="spacingAndGlyphs" textLength="142" x="276" y="424.5889">Montrer résultat tour</text><rect fill="#FEFECE" filter="url(#f1v75937xr2b2j)" height="50" rx="12.5" ry="12.5" style="stroke: #A80036; stroke-width: 1.5;" width="153" x="446.5" y="406.5938"/><line style="stroke: #A80036; stroke-width: 1.5;" x1="446.5" x2="599.5" y1="432.8906" y2="432.8906"/><text fill="#000000" font-family="sans-serif" font-size="14" lengthAdjust="spacingAndGlyphs" textLength="133" x="456.5" y="424.5889">Montrer échec tour</text><!--link *start*score to scoreOk--><path d="M428.095,351.3418 C416.851,362.3303 393.973,384.6881 375.376,402.8631 " fill="none" id="*start*score-scoreOk" style="stroke: #A80036; stroke-width: 1.0;"/><polygon fill="#A80036" points="371.718,406.4378,380.9506,403.0087,375.2942,402.9433,375.3595,397.2868,371.718,406.4378" style="stroke: #A80036; stroke-width: 1.0;"/><text fill="#000000" font-family="sans-serif" font-size="13" lengthAdjust="spacingAndGlyphs" textLength="89" x="408" y="384.6606">score &lt;= 300</text><!--link *start*score to scoreNotOk--><path d="M444.897,346.0888 C459.163,348.7438 485.492,355.5908 501,371.5938 C508.845,379.6896 513.94,390.8371 517.227,401.2639 " fill="none" id="*start*score-scoreNotOk" style="stroke: #A80036; stroke-width: 1.0;"/><polygon fill="#A80036" points="518.7,406.308,520.0168,396.5475,517.2984,401.5084,512.3375,398.79,518.7,406.308" style="stroke: #A80036; stroke-width: 1.0;"/><text fill="#000000" font-family="sans-serif" font-size="13" lengthAdjust="spacingAndGlyphs" textLength="78" x="514" y="384.6606">score &gt; 300</text><!--link *start*game to turn--><path d="M127,257.4729 C127,266.4419 127,281.0699 127,297.1989 " fill="none" id="*start*game-turn" style="stroke: #A80036; stroke-width: 1.0;"/><polygon fill="#A80036" points="127,302.2479,131,293.2479,127,297.2479,123,293.2479,127,302.2479" style="stroke: #A80036; stroke-width: 1.0;"/><!--link turn to score--><path d="M237.207,437.567 C241.465,438.5553 245.722,439.4129 249.98,440.1398 " fill="none" id="turn-score" style="stroke: #A80036; stroke-width: 1.0;"/><polygon fill="#A80036" points="254.978,440.9331,246.7153,435.5732,250.0397,440.1502,245.4627,443.4745,254.978,440.9331" style="stroke: #A80036; stroke-width: 1.0;"/><!--link score to turn--><path d="M254.978,324.6609 C250.721,325.2849 246.463,326.0409 242.205,326.9269 " fill="none" id="score-turn" style="stroke: #A80036; stroke-width: 1.0;"/><polygon fill="#A80036" points="237.207,328.0269,246.8563,329.9996,242.0902,326.9525,245.1373,322.1865,237.207,328.0269" style="stroke: #A80036; stroke-width: 1.0;"/><!--link score to *end*game--><path d="M633.36,382.7969 C676.669,382.7969 716.035,382.7969 736.727,382.7969 " fill="none" id="score-*end*game" style="stroke: #A80036; stroke-width: 1.0;"/><polygon fill="#A80036" points="741.817,382.7969,732.817,378.7969,736.817,382.7969,732.817,386.7969,741.817,382.7969" style="stroke: #A80036; stroke-width: 1.0;"/><text fill="#000000" font-family="sans-serif" font-size="13" lengthAdjust="spacingAndGlyphs" textLength="89" x="643" y="375.8638">score == 300</text><rect fill="#FEFECE" filter="url(#f1v75937xr2b2j)" height="50" rx="12.5" ry="12.5" style="stroke: #A80036; stroke-width: 1.5;" width="110" x="568.5" y="546"/><line style="stroke: #A80036; stroke-width: 1.5;" x1="568.5" x2="678.5" y1="572.2969" y2="572.2969"/><text fill="#000000" font-family="sans-serif" font-size="14" lengthAdjust="spacingAndGlyphs" textLength="90" x="578.5" y="563.9951">Résultats jeu</text><!--link *start to playerSelection--><path d="M623.5,28.257 C623.5,40.856 623.5,63.981 623.5,82.743 " fill="none" id="*start-playerSelection" style="stroke: #A80036; stroke-width: 1.0;"/><polygon fill="#A80036" points="623.5,87.907,627.5,78.907,623.5,82.907,619.5,78.907,623.5,87.907" style="stroke: #A80036; stroke-width: 1.0;"/><!--link playerSelection to game--><path d="M599.635,138.293 C585.349,152.835 565.878,172.655 544.679,194.235 " fill="none" id="playerSelection-game" style="stroke: #A80036; stroke-width: 1.0;"/><polygon fill="#A80036" points="540.983,197.997,550.1436,194.3799,544.487,194.4302,544.4367,188.7735,540.983,197.997" style="stroke: #A80036; stroke-width: 1.0;"/><!--link game to results--><path d="M541.097,486.119 C561.943,507.3389 581.33,527.0741 596.056,542.0641 " fill="none" id="game-results" style="stroke: #A80036; stroke-width: 1.0;"/><polygon fill="#A80036" points="599.698,545.7709,596.2447,536.5473,596.1942,542.2039,590.5375,542.1534,599.698,545.7709" style="stroke: #A80036; stroke-width: 1.0;"/><!--link results to playerSelection--><path d="M678.781,561.9503 C723.307,552.2389 783.15,531.162 812.5,486 C882.249,378.673 882.249,305.327 812.5,198 C790.404,163.999 751.023,143.65 713.908,131.524 " fill="none" id="results-playerSelection" style="stroke: #A80036; stroke-width: 1.0;"/><polygon fill="#A80036" points="708.924,129.94,716.2901,136.4776,713.6892,131.4541,718.7127,128.8533,708.924,129.94" style="stroke: #A80036; stroke-width: 1.0;"/><!--
@startuml
[*]- ->playerSelection
state playerSelection as "Sélection des joueurs"
playerSelection- ->game
state game as "Jeu" {
    [*]- ->turn
    state turn as "Tour joueur X" {
        [*]- ->shoot
        state shoot as "tir d'une flèche"
        shoot- ->shoot: 1..3
    }
    state score as "Score tour X" {
        [*]- ->scoreOk: score <= 300
        [*]- ->scoreNotOk: score > 300
        state scoreOk as "Montrer résultat tour"
        state scoreNotOk as "Montrer échec tour"
    }
    turn->score
    score->turn
    score->[*]: score == 300
}

state results as "Résultats jeu" {

}
game- ->results
results- ->playerSelection
@enduml

PlantUML version 1.2018.12(Sun Oct 21 12:15:15 CEST 2018)
(GPL source distribution)
Java Runtime: Java(TM) SE Runtime Environment
JVM: Java HotSpot(TM) 64-Bit Server VM
Java Version: 1.8.0_101-b13
Operating System: Linux
OS Version: 4.4.0-81-generic
Default Encoding: UTF-8
Language: en
Country: US
--></g></svg>